<svg width="209" height="57" viewBox="0 0 209 57" fill="none" xmlns="http://www.w3.org/2000/svg">
<g clip-path="url(#clip0_2035_19634)">
<path d="M7.80673 40.4848L7.6469 40.3191C3.18758 35.7141 0.949951 29.6677 0.949951 23.6216C0.949951 17.592 3.18758 11.5458 7.6469 6.92413C12.0902 2.30253 17.9241 0 23.7579 0C29.5757 0 35.4097 2.30253 39.8688 6.92413C44.3285 11.5458 46.5499 17.592 46.5499 23.6216C46.5499 29.6677 44.3285 35.7141 39.8688 40.3191L30.5508 30.6616C32.4208 28.7236 33.3638 26.1727 33.3638 23.6216C33.3638 21.0871 32.4208 18.5362 30.5508 16.5815C28.6647 14.6434 26.2034 13.6661 23.7579 13.6661C21.2965 13.6661 18.8351 14.6434 16.9651 16.5815C15.0791 18.5362 14.1361 21.0871 14.1361 23.6216C14.1361 26.1727 15.0791 28.7236 16.9651 30.6616L17.1249 30.8273L17.1409 30.8108L33.0601 47.326L23.726 57L7.80673 40.4848Z" fill="#212B36"/>
<path d="M85.0093 57H76.1122L74.5893 46.6585H63.7685L62.2454 57H54.1499L63.1272 0H76.032L85.0093 57ZM64.8906 38.9228H73.387L69.1388 10.0972L64.8906 38.9228ZM86.5504 0H113.803V8.14287H104.585V57H95.7681V8.14287H86.5504V0ZM117.686 0H131.633C140.45 0 144.778 4.96715 144.778 14.0872V42.9128C144.778 52.0328 140.45 57 131.633 57H117.686V0ZM126.503 8.14287V48.8572H131.473C134.278 48.8572 135.961 47.3915 135.961 43.32V13.68C135.961 9.60857 134.278 8.14287 131.473 8.14287H126.503ZM159.223 24.0215H171.326V32.1643H159.223V48.8572H174.452V57H150.406V0H174.452V8.14287H159.223V24.0215ZM193.22 46.4957L199.954 0H208.05L199.394 57H186.248L177.591 0H186.488L193.22 46.4957Z" fill="#212B36"/>
</g>
<defs>
<clipPath id="clip0_2035_19634">
<rect width="209" height="57" fill="white"/>
</clipPath>
</defs>
</svg>
