<svg width="28" height="28" viewBox="0 0 40 40" fill="none" xmlns="http://www.w3.org/2000/svg">
<path fill-rule="evenodd" clip-rule="evenodd" d="M34.583 10C34.583 10.6904 34.0234 11.25 33.333 11.25L6.66634 11.25C5.97599 11.25 5.41634 10.6904 5.41634 10C5.41634 9.30964 5.97599 8.75 6.66634 8.75L33.333 8.75C34.0234 8.75 34.583 9.30964 34.583 10Z" fill="white"/>
<path fill-rule="evenodd" clip-rule="evenodd" d="M34.583 20C34.583 20.6904 34.0234 21.25 33.333 21.25H6.66634C5.97599 21.25 5.41634 20.6904 5.41634 20C5.41634 19.3096 5.97599 18.75 6.66634 18.75H33.333C34.0234 18.75 34.583 19.3096 34.583 20Z" fill="white"/>
<path fill-rule="evenodd" clip-rule="evenodd" d="M34.583 30C34.583 30.6904 34.0234 31.25 33.333 31.25H6.66634C5.97599 31.25 5.41634 30.6904 5.41634 30C5.41634 29.3096 5.97599 28.75 6.66634 28.75H33.333C34.0234 28.75 34.583 29.3096 34.583 30Z" fill="white"/>
</svg>
