<svg width="40" height="40" viewBox="0 0 40 40" fill="none" xmlns="http://www.w3.org/2000/svg">
<path fill-rule="evenodd" clip-rule="evenodd" d="M28.75 14C28.75 14.4142 28.4142 14.75 28 14.75L12 14.75C11.5858 14.75 11.25 14.4142 11.25 14C11.25 13.5858 11.5858 13.25 12 13.25L28 13.25C28.4142 13.25 28.75 13.5858 28.75 14Z" fill="#212B36"/>
<path fill-rule="evenodd" clip-rule="evenodd" d="M28.75 20C28.75 20.4142 28.4142 20.75 28 20.75H12C11.5858 20.75 11.25 20.4142 11.25 20C11.25 19.5858 11.5858 19.25 12 19.25H28C28.4142 19.25 28.75 19.5858 28.75 20Z" fill="#212B36"/>
<path fill-rule="evenodd" clip-rule="evenodd" d="M28.75 26C28.75 26.4142 28.4142 26.75 28 26.75H12C11.5858 26.75 11.25 26.4142 11.25 26C11.25 25.5858 11.5858 25.25 12 25.25H28C28.4142 25.25 28.75 25.5858 28.75 26Z" fill="#212B36"/>
</svg>
