<svg width="20" height="20" viewBox="0 0 20 20" fill="none" xmlns="http://www.w3.org/2000/svg">
<path fill-rule="evenodd" clip-rule="evenodd" d="M10.0001 18.3333C14.6025 18.3333 18.3334 14.6024 18.3334 10C18.3334 5.39763 14.6025 1.66667 10.0001 1.66667C5.39771 1.66667 1.66675 5.39763 1.66675 10C1.66675 14.6024 5.39771 18.3333 10.0001 18.3333ZM13.8268 7.88375C14.0387 7.61128 13.9896 7.21861 13.7171 7.00669C13.4447 6.79477 13.052 6.84385 12.8401 7.11632L9.50091 11.4095C9.42665 11.505 9.28699 11.5174 9.19709 11.4365L7.08486 9.53548C6.82829 9.30456 6.43311 9.32536 6.20219 9.58193C5.97128 9.8385 5.99208 10.2337 6.24865 10.4646L8.36089 12.3656C8.99016 12.932 9.96783 12.8452 10.4876 12.177L13.8268 7.88375Z" fill="#208D28"/>
</svg>
