<svg width="20" height="20" viewBox="0 0 20 20" fill="none" xmlns="http://www.w3.org/2000/svg">
<path fill-rule="evenodd" clip-rule="evenodd" d="M10.0001 3.33333C6.31818 3.33333 3.33341 6.3181 3.33341 10C3.33341 13.6819 6.31818 16.6667 10.0001 16.6667C13.682 16.6667 16.6667 13.6819 16.6667 10C16.6667 6.3181 13.682 3.33333 10.0001 3.33333ZM1.66675 10C1.66675 5.39762 5.39771 1.66666 10.0001 1.66666C14.6025 1.66666 18.3334 5.39762 18.3334 10C18.3334 14.6024 14.6025 18.3333 10.0001 18.3333C5.39771 18.3333 1.66675 14.6024 1.66675 10ZM10.0001 6.20849C10.4603 6.20849 10.8334 6.58159 10.8334 7.04183V10.3752C10.8334 10.8354 10.4603 11.2085 10.0001 11.2085C9.53984 11.2085 9.16675 10.8354 9.16675 10.3752V7.04183C9.16675 6.58159 9.53984 6.20849 10.0001 6.20849ZM9.12524 12.8752C9.12524 12.4149 9.49834 12.0418 9.95858 12.0418H10.0416C10.5018 12.0418 10.8749 12.4149 10.8749 12.8752V12.9585C10.8749 13.1801 10.7867 13.3925 10.6297 13.5489C10.4727 13.7053 10.2599 13.7927 10.0383 13.7918L9.95531 13.7915C9.49635 13.7897 9.12524 13.4171 9.12524 12.9582V12.8752Z" fill="#D12030"/>
</svg>
