<svg width="20" height="20" viewBox="0 0 20 20" fill="none" xmlns="http://www.w3.org/2000/svg">
<path fill-rule="evenodd" clip-rule="evenodd" d="M4.44453 15.1852C2.9104 15.1852 1.66675 13.9415 1.66675 12.4074C1.66675 10.8843 2.93845 9.62922 4.45606 9.62969C4.46125 9.62969 4.46564 9.6257 4.46611 9.62053C4.70429 7.02928 6.88372 5 9.53712 5C11.5289 5 13.2537 6.14348 14.0906 7.8098C14.0926 7.81365 14.0968 7.81583 14.1011 7.81522C16.2885 7.50271 18.3334 9.25447 18.3334 11.4815C18.3334 13.402 16.8717 14.9811 15.0001 15.1669L10.7501 15.1747V12.6439L11.5531 13.4469C11.846 13.7398 12.3208 13.7398 12.6137 13.4469C12.9066 13.154 12.9066 12.6792 12.6137 12.3863L10.825 10.5976C10.3694 10.142 9.63072 10.142 9.17511 10.5976L7.38642 12.3863C7.09352 12.6792 7.09352 13.154 7.38642 13.4469C7.67931 13.7398 8.15418 13.7398 8.44708 13.4469L9.25008 12.6439V15.1774L5.00008 15.1852H4.44453ZM9.25008 15.1774V17.5C9.25008 17.9142 9.58586 18.25 10.0001 18.25C10.4143 18.25 10.7501 17.9142 10.7501 17.5V15.1747L9.25008 15.1774Z" fill="#637381"/>
</svg>
