<svg width="21" height="20" viewBox="0 0 21 20" fill="none" xmlns="http://www.w3.org/2000/svg">
<g opacity="0.3">
<path fill-rule="evenodd" clip-rule="evenodd" d="M12.6249 1.04694C12.5733 1.04343 12.5214 1.04166 12.4693 1.04166H7.41659C5.23046 1.04166 3.45825 2.81386 3.45825 4.99999V15C3.45825 17.1861 5.23046 18.9583 7.41659 18.9583H14.0833C16.2694 18.9583 18.0416 17.1861 18.0416 15V7.29166H14.9166C13.6509 7.29166 12.6249 6.26564 12.6249 4.99999V1.04694ZM6.79159 9.99999C6.79159 9.65481 7.07141 9.37499 7.41659 9.37499H14.0833C14.4284 9.37499 14.7083 9.65481 14.7083 9.99999C14.7083 10.3452 14.4284 10.625 14.0833 10.625H7.41659C7.07141 10.625 6.79159 10.3452 6.79159 9.99999ZM7.41659 13.5417C7.07141 13.5417 6.79159 13.8215 6.79159 14.1667C6.79159 14.5118 7.07141 14.7917 7.41659 14.7917H10.7499C11.0951 14.7917 11.3749 14.5118 11.3749 14.1667C11.3749 13.8215 11.0951 13.5417 10.7499 13.5417H7.41659Z" fill="#208D28"/>
<path d="M17.6845 6.04166C17.6319 5.95882 17.5738 5.87907 17.5104 5.80298L14.2298 1.86623C14.1232 1.73833 14.0041 1.62363 13.8749 1.52334V4.99999C13.8749 5.57529 14.3413 6.04166 14.9166 6.04166H17.6845Z" fill="#208D28"/>
</g>
<path d="M7.4165 10H14.0832" stroke="#208D28" stroke-width="1.5" stroke-linecap="round"/>
<path d="M7.4165 14.1667H10.7498" stroke="#208D28" stroke-width="1.5" stroke-linecap="round"/>
</svg>
