<svg width="32" height="33" viewBox="0 0 32 33" fill="none" xmlns="http://www.w3.org/2000/svg">
<g opacity="0.3">
<path fill-rule="evenodd" clip-rule="evenodd" d="M18.9999 2.34952C18.9173 2.3439 18.8343 2.34106 18.7509 2.34106H10.6666C7.16878 2.34106 4.33325 5.17659 4.33325 8.6744V24.6744C4.33325 28.1722 7.16878 31.0077 10.6666 31.0077H21.3333C24.8311 31.0077 27.6666 28.1722 27.6666 24.6744V12.3411H22.6666C20.6415 12.3411 18.9999 10.6994 18.9999 8.6744V2.34952ZM9.66658 16.6744C9.66658 16.1221 10.1143 15.6744 10.6666 15.6744H21.3333C21.8855 15.6744 22.3333 16.1221 22.3333 16.6744C22.3333 17.2267 21.8855 17.6744 21.3333 17.6744H10.6666C10.1143 17.6744 9.66658 17.2267 9.66658 16.6744ZM10.6666 22.3411C10.1143 22.3411 9.66658 22.7888 9.66658 23.3411C9.66658 23.8933 10.1143 24.3411 10.6666 24.3411H15.9999C16.5522 24.3411 16.9999 23.8933 16.9999 23.3411C16.9999 22.7888 16.5522 22.3411 15.9999 22.3411H10.6666Z" fill="#208D28"/>
<path d="M27.0953 10.3411C27.0111 10.2085 26.9182 10.0809 26.8167 9.95919L21.5677 3.66039C21.3972 3.45574 21.2066 3.27222 20.9999 3.11176V8.6744C20.9999 9.59487 21.7461 10.3411 22.6666 10.3411H27.0953Z" fill="#208D28"/>
</g>
<path d="M10.6665 16.6744H21.3332" stroke="#208D28" stroke-width="1.5" stroke-linecap="round"/>
<path d="M10.6665 23.3411H15.9998" stroke="#208D28" stroke-width="1.5" stroke-linecap="round"/>
</svg>
