<svg width="20" height="20" viewBox="0 0 20 20" fill="none" xmlns="http://www.w3.org/2000/svg">
<path fill-rule="evenodd" clip-rule="evenodd" d="M19.167 10.4587L19.167 13.292C19.167 15.5011 17.3761 17.292 15.167 17.292L6.50033 17.292C4.29119 17.292 2.50032 15.5011 2.50032 13.292L2.50032 10.4587C2.50032 8.24952 4.29119 6.45866 6.50033 6.45866L7.50033 6.45866L10.0837 6.45866L10.0837 11.3147L8.86399 10.095C8.57109 9.8021 8.09622 9.8021 7.80333 10.095C7.51043 10.3879 7.51043 10.8628 7.80333 11.1557L9.71407 13.0664C10.3324 13.6847 11.3349 13.6847 11.9532 13.0664L13.864 11.1557C14.1569 10.8628 14.1569 10.3879 13.864 10.095C13.5711 9.8021 13.0962 9.8021 12.8033 10.095L11.5837 11.3147L11.5837 6.45866L14.167 6.45866L15.167 6.45866C17.3761 6.45866 19.167 8.24952 19.167 10.4587ZM11.5837 6.45866L11.5837 2.29199C11.5837 1.87778 11.2479 1.54199 10.8337 1.54199C10.4194 1.54199 10.0837 1.87778 10.0837 2.29199L10.0837 6.45866L11.5837 6.45866Z" fill="#1A52DE"/>
</svg>
