<svg width="16" height="16" viewBox="0 0 16 16" fill="none" xmlns="http://www.w3.org/2000/svg">
<path fill-rule="evenodd" clip-rule="evenodd" d="M5.44144 1.33301L8.45233 1.33301C8.53233 1.33301 8.60636 1.33301 8.67306 1.33362C8.86754 1.33539 9.05393 1.34155 9.24852 1.38827C9.4531 1.43739 9.64803 1.51848 9.82652 1.62786C10.0302 1.75266 10.1993 1.92213 10.3908 2.11399C10.4038 2.12698 10.4169 2.14008 10.4301 2.15327L12.5137 4.23693C12.5262 4.2494 12.5386 4.26176 12.5509 4.27402C12.7442 4.46705 12.9133 4.63583 13.0385 4.84014C13.1478 5.01855 13.229 5.21359 13.2781 5.41827C13.3221 5.60139 13.3303 5.77726 13.3326 5.96016C13.3334 5.97323 13.3338 5.98641 13.3338 5.99968C13.3338 6.00859 13.3336 6.01747 13.3333 6.0263C13.3337 6.08496 13.3337 6.1487 13.3337 6.2168V11.8944C13.3337 12.2451 13.3337 12.5478 13.3133 12.7971C13.2918 13.0604 13.2442 13.3222 13.1158 13.5743C12.9239 13.9509 12.6172 14.2569 12.2413 14.4485C11.9892 14.5769 11.7274 14.6245 11.4641 14.646C11.2148 14.6664 10.9121 14.6664 10.5614 14.6663H5.43926C5.08853 14.6664 4.78576 14.6664 4.5363 14.646C4.27303 14.6245 4.01099 14.577 3.75887 14.4485C3.38217 14.2566 3.07654 13.9502 2.88498 13.5743C2.75646 13.322 2.70891 13.06 2.68737 12.7964C2.66697 12.5467 2.66698 12.2436 2.66699 11.8922V4.10746C2.66698 3.75601 2.66697 3.45277 2.68737 3.203C2.7089 2.93942 2.75643 2.67717 2.88498 2.42488C3.07673 2.04856 3.38254 1.74274 3.75886 1.551C4.01116 1.42245 4.2734 1.37492 4.53698 1.35339C4.78676 1.33299 5.09 1.333 5.44144 1.33301ZM11.7229 5.33301C11.6829 5.29206 11.6331 5.24197 11.5709 5.17974L9.48726 3.09608C9.42489 3.03371 9.37468 2.98388 9.33366 2.94371V3.86634C9.33366 4.25072 9.33418 4.49882 9.34961 4.68764C9.3644 4.86863 9.38951 4.93574 9.40632 4.96874C9.47054 5.09477 9.57266 5.19687 9.69752 5.26049C9.73033 5.27721 9.79735 5.3023 9.97823 5.31708C10.1669 5.33249 10.4146 5.33301 10.7983 5.33301H11.7229ZM8.00033 2.66634L8.00033 3.89205C8.00031 4.24347 8.0003 4.54659 8.02071 4.79625C8.04225 5.0598 8.0898 5.32185 8.21831 5.57406C8.40976 5.9498 8.71529 6.25645 9.0922 6.4485C9.34432 6.57696 9.60637 6.62447 9.86964 6.64598C10.1191 6.66637 10.4219 6.66636 10.7726 6.66634L12.0003 6.66634V11.8687C12.0003 12.2524 11.9998 12.5 11.9844 12.6885C11.9696 12.8691 11.9446 12.936 11.9278 12.9689C11.8641 13.094 11.7617 13.1964 11.6359 13.2605C11.603 13.2772 11.5361 13.3023 11.3555 13.3171C11.167 13.3325 10.9194 13.333 10.5357 13.333H5.46494C5.0813 13.333 4.83353 13.3325 4.6449 13.3171C4.46402 13.3023 4.397 13.2772 4.36418 13.2605C4.23912 13.1968 4.1371 13.0948 4.07299 12.9689C4.05618 12.936 4.03107 12.8688 4.01628 12.6878C4.00085 12.499 4.00033 12.2508 4.00033 11.8665V4.13314C4.00033 3.74878 4.00084 3.50051 4.01628 3.31154C4.03108 3.13031 4.05621 3.06312 4.07299 3.0302C4.1369 2.90476 4.23874 2.80292 4.36419 2.739C4.39711 2.72223 4.46429 2.6971 4.64552 2.6823C4.8345 2.66686 5.08276 2.66634 5.46712 2.66634H8.00033ZM8.00033 7.33301C8.36852 7.33301 8.66699 7.63149 8.66699 7.99968V10.754L9.63053 10.1116C9.93688 9.90741 10.3508 9.99019 10.555 10.2965C10.7593 10.6029 10.6765 11.0168 10.3701 11.221L8.37013 12.5544C8.14619 12.7037 7.85446 12.7037 7.63053 12.5544L5.63053 11.221C5.32417 11.0168 5.24139 10.6029 5.44563 10.2965C5.64986 9.99019 6.06377 9.90741 6.37013 10.1116L7.33366 10.754V7.99968C7.33366 7.63149 7.63214 7.33301 8.00033 7.33301Z" fill="#002D9D"/>
</svg>
