<svg width="17" height="17" viewBox="0 0 17 17" fill="none" xmlns="http://www.w3.org/2000/svg">
<path d="M3 3.50781C3 2.67939 3.67157 2.00781 4.5 2.00781H6.83333C7.66176 2.00781 8.33333 2.67939 8.33333 3.50781V7.84115C8.33333 8.66957 7.66176 9.34115 6.83333 9.34115H3V3.50781Z" fill="#637381" stroke="#637381" stroke-width="1.5"/>
<path opacity="0.3" d="M7.6665 3.34119H11.7027C12.52 3.34119 12.9922 4.26839 12.5115 4.92936L11.8554 5.83151C11.3453 6.53281 11.3453 7.4829 11.8554 8.1842L12.5115 9.08635C12.9922 9.74732 12.52 10.6745 11.7027 10.6745H8.6665C8.11422 10.6745 7.6665 10.2268 7.6665 9.67452V3.34119Z" fill="#637381" stroke="#637381" stroke-width="1.5"/>
<path d="M3 15.3412L3 3.34119" stroke="#637381" stroke-width="1.5" stroke-linecap="round" stroke-linejoin="round"/>
</svg>
