<svg width="21" height="20" viewBox="0 0 21 20" fill="none" xmlns="http://www.w3.org/2000/svg">
<path d="M3.58325 3.16666C3.58325 2.33823 4.25482 1.66666 5.08325 1.66666H8.74992C9.57835 1.66666 10.2499 2.33823 10.2499 3.16666V9.33332C10.2499 10.1617 9.57835 10.8333 8.74992 10.8333H3.58325V3.16666Z" fill="#208D28" stroke="#208D28" stroke-width="1.5"/>
<path opacity="0.3" d="M9.4165 3.33331H14.9527C15.77 3.33331 16.2422 4.26052 15.7615 4.92148L14.4387 6.7403C13.9287 7.4416 13.9287 8.39169 14.4387 9.09299L15.7615 10.9118C16.2422 11.5728 15.77 12.5 14.9527 12.5H10.4165C9.86422 12.5 9.4165 12.0523 9.4165 11.5V3.33331Z" fill="#208D28" stroke="#208D28" stroke-width="1.5"/>
<path d="M3.58325 18.3333L3.58325 3.33331" stroke="#208D28" stroke-width="1.5" stroke-linecap="round" stroke-linejoin="round"/>
</svg>
