<svg width="20" height="20" viewBox="0 0 20 20" fill="none" xmlns="http://www.w3.org/2000/svg">
<path d="M17.5 15.8333V10C17.5 5.85787 14.1421 2.5 10 2.5V2.5C5.85786 2.5 2.5 5.85786 2.5 10V15.8333" stroke="#1A52DE" stroke-width="1.5" stroke-linecap="round"/>
<path d="M13.333 12.833C13.333 11.7284 14.2284 10.833 15.333 10.833H15.4997C16.6042 10.833 17.4997 11.7284 17.4997 12.833V15.4997C17.4997 16.6042 16.6042 17.4997 15.4997 17.4997H15.333C14.2284 17.4997 13.333 16.6042 13.333 15.4997V12.833Z" fill="#1A52DE" stroke="#1A52DE" stroke-width="1.5"/>
<path d="M6.66699 12.833C6.66699 11.7284 5.77156 10.833 4.66699 10.833H4.50033C3.39576 10.833 2.50033 11.7284 2.50033 12.833V15.4997C2.50033 16.6042 3.39576 17.4997 4.50033 17.4997H4.66699C5.77156 17.4997 6.66699 16.6042 6.66699 15.4997V12.833Z" fill="#1A52DE" stroke="#1A52DE" stroke-width="1.5"/>
</svg>
