<svg width="20" height="20" viewBox="0 0 20 20" fill="none" xmlns="http://www.w3.org/2000/svg">
<path fill-rule="evenodd" clip-rule="evenodd" d="M10.0003 1.04199C5.05277 1.04199 1.04199 5.05277 1.04199 10.0003C1.04199 14.9479 5.05277 18.9587 10.0003 18.9587C14.9479 18.9587 18.9587 14.9479 18.9587 10.0003C18.9587 5.05277 14.9479 1.04199 10.0003 1.04199ZM8.5835 7.16699C8.99771 7.16699 9.3335 7.50278 9.3335 7.91699V12.0837C9.3335 12.4979 8.99771 12.8337 8.5835 12.8337C8.16928 12.8337 7.8335 12.4979 7.8335 12.0837V7.91699C7.8335 7.50278 8.16928 7.16699 8.5835 7.16699ZM12.2502 7.91699C12.2502 7.50278 11.9144 7.16699 11.5002 7.16699C11.0859 7.16699 10.7502 7.50278 10.7502 7.91699V12.0837C10.7502 12.4979 11.0859 12.8337 11.5002 12.8337C11.9144 12.8337 12.2502 12.4979 12.2502 12.0837V7.91699Z" fill="#637381"/>
</svg>
