<svg width="18" height="17" viewBox="0 0 18 17" fill="none" xmlns="http://www.w3.org/2000/svg">
<path fill-rule="evenodd" clip-rule="evenodd" d="M9.00033 1.83366C5.31843 1.83366 2.33366 4.81843 2.33366 8.50033C2.33366 12.1822 5.31843 15.167 9.00033 15.167C12.6822 15.167 15.667 12.1822 15.667 8.50033C15.667 4.81843 12.6822 1.83366 9.00033 1.83366ZM0.666992 8.50033C0.666992 3.89795 4.39795 0.166992 9.00033 0.166992C13.6027 0.166992 17.3337 3.89795 17.3337 8.50033C17.3337 13.1027 13.6027 16.8337 9.00033 16.8337C4.39795 16.8337 0.666992 13.1027 0.666992 8.50033ZM8.47831 3.54152C9.08544 3.44519 9.70718 3.51854 10.2753 3.75371C10.8435 3.98892 11.3354 4.37681 11.6967 4.87399C12.0583 5.37155 12.2748 5.95904 12.3231 6.57163C12.3714 7.1846 12.2491 7.79902 11.9701 8.34677C11.6911 8.89446 11.2664 9.35421 10.7421 9.67552C10.4588 9.84918 10.1524 9.97864 9.83366 10.061V10.1672C9.83366 10.6274 9.46056 11.0005 9.00033 11.0005C8.54009 11.0005 8.16699 10.6274 8.16699 10.1672V9.33346C8.16699 8.87323 8.54009 8.50013 9.00033 8.50013C9.30772 8.50013 9.60913 8.41512 9.87122 8.25449C10.1332 8.09393 10.3454 7.86426 10.485 7.59025C10.6246 7.31628 10.6857 7.00899 10.6615 6.70262C10.6374 6.39587 10.5291 6.10229 10.3485 5.85387C10.1677 5.60508 9.92168 5.41116 9.63781 5.29365C9.35384 5.1761 9.04313 5.13942 8.73947 5.1876C8.43571 5.23579 8.15094 5.36713 7.91738 5.56673C7.6836 5.76653 7.50988 6.02664 7.41503 6.3189C7.27297 6.75667 6.80293 6.99638 6.36516 6.85431C5.9274 6.71224 5.68769 6.2422 5.82976 5.80444C6.01957 5.21955 6.3673 4.69906 6.83457 4.29973C7.30206 3.9002 7.87127 3.63783 8.47831 3.54152ZM8.12549 12.667C8.12549 12.2068 8.49858 11.8337 8.95882 11.8337H9.04183C9.50207 11.8337 9.87516 12.2068 9.87516 12.667V12.7503C9.87516 13.2099 9.50306 13.5828 9.04346 13.5837L8.96045 13.5838C8.73915 13.5843 8.52677 13.4966 8.37014 13.3403C8.21351 13.184 8.12549 12.9718 8.12549 12.7505V12.667Z" fill="#637381" fill-opacity="0.24"/>
</svg>
