<svg width="20" height="20" viewBox="0 0 20 20" fill="none" xmlns="http://www.w3.org/2000/svg">
<path d="M9.64689 16.5153C7.78578 16.5153 6.20939 15.8695 4.91772 14.5778C3.62606 13.2862 2.98022 11.7098 2.98022 9.84867C2.98022 7.98756 3.62606 6.41117 4.91772 5.11951C6.20939 3.82784 7.78578 3.18201 9.64689 3.18201C10.6052 3.18201 11.5219 3.37992 12.3969 3.77576C13.2719 4.17159 14.0219 4.73756 14.6469 5.47367V3.18201H16.3136V9.01534H10.4802V7.34867H13.9802C13.5358 6.5709 12.9281 5.95978 12.1573 5.51534C11.3865 5.0709 10.5497 4.84867 9.64689 4.84867C8.258 4.84867 7.07745 5.33478 6.10522 6.30701C5.133 7.27923 4.64689 8.45978 4.64689 9.84867C4.64689 11.2376 5.133 12.4181 6.10522 13.3903C7.07745 14.3626 8.258 14.8487 9.64689 14.8487C10.7163 14.8487 11.6816 14.5431 12.5427 13.932C13.4038 13.3209 14.008 12.5153 14.3552 11.5153H16.1052C15.7163 12.9876 14.9247 14.189 13.7302 15.1195C12.5358 16.0501 11.1747 16.5153 9.64689 16.5153Z" fill="white"/>
</svg>
