<svg width="20" height="20" viewBox="0 0 20 20" fill="none" xmlns="http://www.w3.org/2000/svg">
<path fill-rule="evenodd" clip-rule="evenodd" d="M5.13506 1.66663H14.866C15.3052 1.66661 15.6841 1.6666 15.9961 1.69211C16.3255 1.71904 16.6529 1.7785 16.9681 1.93911C17.4377 2.17834 17.8212 2.56016 18.0614 3.03147C18.2219 3.34662 18.2813 3.67418 18.3082 4.00326C18.3337 4.31508 18.3337 4.69355 18.3337 5.13195V14.8684C18.3337 15.3068 18.3337 15.6851 18.3082 15.9968C18.2813 16.3258 18.2219 16.6531 18.0614 16.9682C17.8215 17.439 17.4381 17.8215 16.9681 18.061C16.6531 18.2215 16.3258 18.2809 15.9967 18.3078C15.685 18.3333 15.3067 18.3333 14.8683 18.3333H5.13232C4.69391 18.3333 4.31545 18.3333 4.00363 18.3078C3.67454 18.2809 3.34699 18.2216 3.03183 18.061C2.56096 17.8211 2.17892 17.4381 1.93948 16.9682C1.77883 16.6529 1.71939 16.3253 1.69247 15.9959C1.66697 15.6838 1.66698 15.3049 1.66699 14.8656V5.13469C1.66698 4.69538 1.66697 4.31633 1.69247 4.00411C1.71938 3.67464 1.77879 3.34683 1.93948 3.03147C2.17916 2.56106 2.56143 2.17879 3.03183 1.93911C3.3472 1.77842 3.67501 1.71901 4.00448 1.6921C4.3167 1.6666 4.69575 1.66661 5.13506 1.66663ZM4.14016 3.35324C3.91362 3.37174 3.82964 3.40315 3.78848 3.42412C3.63168 3.50402 3.50438 3.63132 3.42449 3.78812C3.40352 3.82927 3.3721 3.91325 3.3536 4.13979C3.33431 4.37601 3.33366 4.68634 3.33366 5.16679V14.8335C3.33366 15.3139 3.33431 15.6241 3.3536 15.8601C3.37209 16.0864 3.40348 16.1703 3.42449 16.2115C3.50462 16.3688 3.63215 16.4963 3.78848 16.576C3.8295 16.5969 3.91328 16.6282 4.13938 16.6467C4.37516 16.666 4.68488 16.6666 5.16442 16.6666H14.8362C15.3158 16.6666 15.6253 16.666 15.8609 16.6467C16.0867 16.6283 16.1704 16.5969 16.2115 16.576C16.3687 16.4959 16.4967 16.3679 16.5763 16.2115C16.5973 16.1704 16.6286 16.0867 16.6471 15.8609C16.6663 15.6254 16.667 15.3158 16.667 14.8363V5.16405C16.667 4.68451 16.6663 4.37479 16.6471 4.13901C16.6286 3.91291 16.5972 3.82913 16.5763 3.78812C16.4969 3.63222 16.3692 3.50448 16.2115 3.42412C16.1702 3.40308 16.0864 3.37171 15.8603 3.35323C15.6243 3.33394 15.3143 3.33329 14.8338 3.33329H5.16716C4.6867 3.33329 4.37637 3.33394 4.14016 3.35324ZM13.8876 6.87712C14.2316 7.18288 14.2625 7.70961 13.9568 8.0536L9.51233 13.0536C9.35419 13.2315 9.12753 13.3333 8.88951 13.3333C8.65149 13.3333 8.42482 13.2315 8.26668 13.0536L6.04419 10.5536C5.7384 10.2097 5.76935 9.68294 6.11332 9.37715C6.45729 9.07137 6.98402 9.10232 7.2898 9.44629L8.88945 11.2457L12.7111 6.94632C13.0169 6.60234 13.5436 6.57135 13.8876 6.87712Z" fill="#2199F1"/>
</svg>
