<svg width="16" height="16" viewBox="0 0 16 16" fill="none" xmlns="http://www.w3.org/2000/svg">
<g clip-path="url(#clip0_2005_8)">
<path fill-rule="evenodd" clip-rule="evenodd" d="M5.33325 -0.083374C5.74747 -0.083374 6.08325 0.252412 6.08325 0.666626V0.69974C6.30029 0.658998 6.52103 0.628569 6.74495 0.608979C7.03888 0.583263 7.37844 0.583274 7.95317 0.583292L7.99992 0.583293L8.04667 0.583292C8.6214 0.583274 8.96096 0.583263 9.25489 0.608979C9.47881 0.628569 9.69955 0.658998 9.91659 0.69974V0.666626C9.91659 0.252412 10.2524 -0.083374 10.6666 -0.083374C11.0808 -0.083374 11.4166 0.252412 11.4166 0.666626V1.1679C13.6043 2.14409 15.1723 4.24638 15.3909 6.74499C15.4166 7.03892 15.4166 7.37849 15.4166 7.95323V7.99996V8.04669C15.4166 8.62143 15.4166 8.96099 15.3909 9.25493C15.1054 12.5182 12.5182 15.1054 9.25489 15.3909C8.96096 15.4167 8.62139 15.4166 8.04665 15.4166L7.99992 15.4166L7.95319 15.4166C7.37845 15.4166 7.03889 15.4167 6.74495 15.3909C3.48169 15.1054 0.894439 12.5182 0.60894 9.25493C0.583224 8.961 0.583235 8.62144 0.583253 8.04671L0.583254 7.99996L0.583253 7.95321C0.583235 7.37848 0.583224 7.03892 0.60894 6.74499C0.82754 4.24638 2.39557 2.1441 4.58325 1.1679V0.666626C4.58325 0.252412 4.91904 -0.083374 5.33325 -0.083374ZM3.91659 5.33329C3.91659 4.91908 4.25237 4.58329 4.66659 4.58329H11.3333C11.7475 4.58329 12.0833 4.91908 12.0833 5.33329C12.0833 5.74751 11.7475 6.08329 11.3333 6.08329H4.66659C4.25237 6.08329 3.91659 5.74751 3.91659 5.33329ZM5.33325 9.33329C5.70144 9.33329 5.99992 9.03482 5.99992 8.66663C5.99992 8.29844 5.70144 7.99996 5.33325 7.99996C4.96506 7.99996 4.66659 8.29844 4.66659 8.66663C4.66659 9.03482 4.96506 9.33329 5.33325 9.33329ZM5.99992 11.3333C5.99992 11.7015 5.70144 12 5.33325 12C4.96506 12 4.66659 11.7015 4.66659 11.3333C4.66659 10.9651 4.96506 10.6666 5.33325 10.6666C5.70144 10.6666 5.99992 10.9651 5.99992 11.3333ZM7.99992 12C8.36811 12 8.66659 11.7015 8.66659 11.3333C8.66659 10.9651 8.36811 10.6666 7.99992 10.6666C7.63173 10.6666 7.33325 10.9651 7.33325 11.3333C7.33325 11.7015 7.63173 12 7.99992 12ZM11.3333 11.3333C11.3333 11.7015 11.0348 12 10.6666 12C10.2984 12 9.99992 11.7015 9.99992 11.3333C9.99992 10.9651 10.2984 10.6666 10.6666 10.6666C11.0348 10.6666 11.3333 10.9651 11.3333 11.3333ZM7.99992 9.33329C8.36811 9.33329 8.66659 9.03482 8.66659 8.66663C8.66659 8.29844 8.36811 7.99996 7.99992 7.99996C7.63173 7.99996 7.33325 8.29844 7.33325 8.66663C7.33325 9.03482 7.63173 9.33329 7.99992 9.33329ZM11.3333 8.66663C11.3333 9.03482 11.0348 9.33329 10.6666 9.33329C10.2984 9.33329 9.99992 9.03482 9.99992 8.66663C9.99992 8.29844 10.2984 7.99996 10.6666 7.99996C11.0348 7.99996 11.3333 8.29844 11.3333 8.66663Z" fill="#002D9D"/>
</g>
<defs>
<clipPath id="clip0_2005_8">
<rect width="16" height="16" fill="white"/>
</clipPath>
</defs>
</svg>
