<svg width="16" height="16" viewBox="0 0 16 16" fill="none" xmlns="http://www.w3.org/2000/svg">
<path fill-rule="evenodd" clip-rule="evenodd" d="M2.66659 4.28577C1.93021 4.28577 1.33325 4.88272 1.33325 5.6191V6.72228C1.33325 7.31109 1.71948 7.83018 2.28346 7.99938L7.23366 9.48443C7.7335 9.63438 8.26634 9.63438 8.76618 9.48443L13.7164 7.99938C14.2804 7.83018 14.6666 7.31109 14.6666 6.72227V5.6191C14.6666 4.88272 14.0696 4.28577 13.3333 4.28577H2.66659ZM8.74992 6.57157C8.74992 6.15736 8.41413 5.82157 7.99992 5.82157C7.5857 5.82157 7.24992 6.15736 7.24992 6.57157V7.71442C7.24992 8.12864 7.5857 8.46442 7.99992 8.46442C8.41413 8.46442 8.74992 8.12864 8.74992 7.71442V6.57157Z" fill="#002D9D"/>
<path fill-rule="evenodd" clip-rule="evenodd" d="M1.38892 8.67502V11.3332C1.38892 13.0822 2.80668 14.4999 4.55558 14.4999H11.4445C13.1934 14.4999 14.6111 13.0822 14.6111 11.3332V8.67488C14.4267 8.79562 14.2229 8.89155 14.0037 8.95729L9.05352 10.4423C8.36625 10.6485 7.63359 10.6485 6.94632 10.4423L1.99611 8.95729C1.77706 8.89157 1.57333 8.7957 1.38892 8.67502ZM1.42999 7.22119L8.00003 8.33338L14.5698 7.22123C14.4215 7.58867 14.1129 7.88052 13.7164 7.99946L8.76618 9.48452C8.26634 9.63447 7.7335 9.63447 7.23366 9.48452L2.28346 7.99946C1.88697 7.88052 1.57834 7.58865 1.42999 7.22119ZM7.99959 9.33329L7.99996 9.33337L7.99992 9.33338L7.99959 9.33329Z" fill="#002D9D"/>
<path d="M10.222 4.2857V4C10.222 2.89543 9.3266 2 8.22203 2H7.77759C6.67302 2 5.77759 2.89543 5.77759 4L5.77759 4.2857" stroke="#002D9D" stroke-width="1.5"/>
</svg>
